<?xml version="1.0" encoding="UTF-8"?>
<svg version="1.1" xmlns="http://www.w3.org/2000/svg" width="128" height="128">
<path d="M0 0 C3.02508145 1.73602105 5.41790069 3.83580137 7 7 C7.68128376 13.81283762 7.68128376 13.81283762 5.953125 16.82421875 C4.17156722 18.98828747 2.52390368 20.73804816 0 22 C-0.46751788 24.35599235 -0.46751788 24.35599235 -0.625 27.0625 C-0.69976562 27.98160156 -0.77453125 28.90070312 -0.8515625 29.84765625 C-0.92503906 30.91306641 -0.92503906 30.91306641 -1 32 C0.05912598 31.97905273 1.11825195 31.95810547 2.20947266 31.93652344 C6.15659957 31.86386615 10.10366792 31.81810746 14.05126953 31.78027344 C15.75644894 31.76021631 17.46156006 31.73296343 19.16650391 31.69824219 C21.62419524 31.64946139 24.08097366 31.62697281 26.5390625 31.609375 C27.29555084 31.58872986 28.05203918 31.56808472 28.83145142 31.54681396 C34.92113194 31.54425968 38.46801278 33.51578613 42.86328125 37.828125 C44.46067037 40.88018118 44.29006132 43.33128943 44.1875 46.75 C44.14689453 48.50570312 44.14689453 48.50570312 44.10546875 50.296875 C44.07066406 51.18890625 44.03585938 52.0809375 44 53 C44.73605469 52.95359375 45.47210938 52.9071875 46.23046875 52.859375 C47.20628906 52.82328125 48.18210937 52.7871875 49.1875 52.75 C50.15042969 52.70359375 51.11335938 52.6571875 52.10546875 52.609375 C55.92104543 53.12429763 57.33178928 54.23677225 60 57 C60.49882462 59.70310845 60.68083054 61.77176338 60.62890625 64.46875 C60.63131821 65.186073 60.63373016 65.903396 60.63621521 66.64245605 C60.63523798 68.15541119 60.62187341 69.66840262 60.59692383 71.18115234 C60.56260242 73.49310107 60.5762679 75.80122758 60.59570312 78.11328125 C60.58880435 79.58595372 60.57913167 81.05861635 60.56640625 82.53125 C60.57136612 83.21989136 60.57632599 83.90853271 60.58143616 84.61804199 C60.49958494 87.96454652 60.19423879 89.74313749 58.15307617 92.44238281 C55.23752734 94.55160172 53.30663342 94.40463624 49.75 94.25 C48.67234375 94.21390625 47.5946875 94.1778125 46.484375 94.140625 C45.66453125 94.09421875 44.8446875 94.0478125 44 94 C44.05220703 95.32064453 44.05220703 95.32064453 44.10546875 96.66796875 C44.14607422 98.41013672 44.14607422 98.41013672 44.1875 100.1875 C44.23970703 101.91033203 44.23970703 101.91033203 44.29296875 103.66796875 C43.96589356 107.38790392 43.31348512 109.09434298 41 112 C36.85402708 115.15793122 33.21051662 115.43058276 28.16796875 115.38818359 C27.00849228 115.39606903 27.00849228 115.39606903 25.82559204 115.40411377 C23.27935369 115.41727989 20.73374433 115.40858794 18.1875 115.3984375 C16.41300334 115.40045921 14.63850749 115.40337147 12.86401367 115.40713501 C9.14851964 115.41155376 5.43324225 115.40514178 1.71777344 115.39111328 C-3.04042303 115.37402162 -7.79811182 115.38386521 -12.55628967 115.40183067 C-16.21948051 115.41268065 -19.88255136 115.4092166 -23.54574585 115.4014473 C-25.29999858 115.39944865 -27.05426227 115.40189279 -28.8085022 115.40888596 C-31.26195053 115.41652048 -33.71458118 115.40486874 -36.16796875 115.38818359 C-36.89019623 115.39425629 -37.61242371 115.40032898 -38.35653687 115.40658569 C-42.74641207 115.3513878 -45.49620705 114.66879146 -49 112 C-52.11343442 108.08963443 -52.33657544 105.10698944 -52.1875 100.1875 C-52.16042969 99.02605469 -52.13335937 97.86460938 -52.10546875 96.66796875 C-52.07066406 95.78753906 -52.03585938 94.90710938 -52 94 C-52.81984375 94.04640625 -53.6396875 94.0928125 -54.484375 94.140625 C-55.56203125 94.17671875 -56.6396875 94.2128125 -57.75 94.25 C-58.81734375 94.29640625 -59.8846875 94.3428125 -60.984375 94.390625 C-64 94 -64 94 -66.15307617 92.44238281 C-68.60187781 89.20407329 -68.59454287 86.43781233 -68.56640625 82.53125 C-68.57260483 81.813927 -68.57880341 81.096604 -68.58518982 80.35754395 C-68.59227697 78.84465896 -68.58913308 77.3316958 -68.57641602 75.81884766 C-68.56254007 73.50667674 -68.59663692 71.19854842 -68.63476562 68.88671875 C-68.63571682 67.41406151 -68.63385795 65.94139922 -68.62890625 64.46875 C-68.64216446 63.78010864 -68.65542267 63.09146729 -68.66908264 62.38195801 C-68.59761846 58.6900536 -68.24380082 57.25248275 -65.64160156 54.55761719 C-62.53576259 52.72626297 -60.75948426 52.57785618 -57.1875 52.75 C-56.21167969 52.78609375 -55.23585938 52.8221875 -54.23046875 52.859375 C-53.49441406 52.90578125 -52.75835937 52.9521875 -52 53 C-52.08701172 51.69675781 -52.08701172 51.69675781 -52.17578125 50.3671875 C-52.59033763 39.77823307 -52.59033763 39.77823307 -49.75 36.3125 C-44.76737185 32.12256269 -41.16708436 31.71809236 -34.734375 31.8046875 C-33.94097717 31.8075174 -33.14757935 31.81034729 -32.33013916 31.81326294 C-29.80327083 31.82443221 -27.27676068 31.84953056 -24.75 31.875 C-23.0338593 31.88503402 -21.31771302 31.89415913 -19.6015625 31.90234375 C-15.40090426 31.92436086 -11.2005128 31.95886813 -7 32 C-7.08733576 30.39482903 -7.19552224 28.79078338 -7.3125 27.1875 C-7.37050781 26.29417969 -7.42851563 25.40085937 -7.48828125 24.48046875 C-8.3325432 20.38805395 -10.61551134 19.25632577 -14 17 C-15.61429923 13.77140153 -15.59570657 10.49006347 -15 7 C-11.47244328 0.85310079 -6.96461519 -1.18876549 0 0 Z M-7.25 7.9375 C-8.11625 8.9584375 -8.11625 8.9584375 -9 10 C-7.94525335 13.69460876 -7.94525335 13.69460876 -5.125 16.0625 C-2.77383252 16.21665306 -2.77383252 16.21665306 -0.75 14.0625 C-0.1725 13.381875 0.405 12.70125 1 12 C-0.05474665 8.30539124 -0.05474665 8.30539124 -2.875 5.9375 C-5.22616748 5.78334694 -5.22616748 5.78334694 -7.25 7.9375 Z M-45 41 C-46.33602754 43.67205509 -46.15670995 45.75515653 -46.19287109 48.74731445 C-46.20893402 49.9522908 -46.22499695 51.15726715 -46.24154663 52.39875793 C-46.2858948 57.91191461 -46.32750088 63.42493982 -46.35009766 68.93823242 C-46.36343429 71.84935957 -46.39128034 74.75978527 -46.43212891 77.6706543 C-46.48147812 81.18733383 -46.50622113 84.70337741 -46.51332474 88.22038841 C-46.52328846 90.20854168 -46.55752711 92.19652542 -46.59213257 94.18440247 C-46.58928253 95.3988353 -46.5864325 96.61326813 -46.58349609 97.86450195 C-46.59158295 98.93102493 -46.5996698 99.99754791 -46.60800171 101.09638977 C-45.76343537 105.12975257 -44.29115231 106.56770915 -41 109 C-37.55621702 109.75338838 -37.55621702 109.75338838 -33.71875 109.64697266 C-32.64705566 109.66011505 -32.64705566 109.66011505 -31.55371094 109.67352295 C-29.20184849 109.6954549 -26.85188013 109.68098866 -24.5 109.6640625 C-22.86002239 109.66743248 -21.22004721 109.67228661 -19.58007812 109.67855835 C-16.14689297 109.68592119 -12.71435928 109.67524392 -9.28125 109.65185547 C-4.88590643 109.62336713 -0.49208935 109.63977439 3.90319824 109.66971779 C7.28852794 109.68780723 10.67349719 109.68202539 14.05883789 109.66907883 C15.67911969 109.66574932 17.29943448 109.66981592 18.91967773 109.68147659 C21.18691356 109.69421367 23.45169642 109.67477397 25.71875 109.64697266 C27.00716797 109.64299469 28.29558594 109.63901672 29.62304688 109.63491821 C33.94675281 108.82199617 35.41608391 107.52362688 38 104 C38.73500968 101.07891555 38.73500968 101.07891555 38.61523438 97.89624023 C38.62453979 96.68826279 38.63384521 95.48028534 38.64343262 94.23570251 C38.62703735 92.93975662 38.61064209 91.64381073 38.59375 90.30859375 C38.59203764 88.95768846 38.59210585 87.60677985 38.59387207 86.25587463 C38.59222176 83.4304304 38.57357734 80.60578243 38.54199219 77.78051758 C38.50227602 74.16329122 38.49795279 70.54710489 38.50545502 66.92970181 C38.50852753 64.14234427 38.49639508 61.35521955 38.47932434 58.56791878 C38.46889995 56.58708676 38.46844703 54.60621038 38.46813965 52.62535095 C38.44427185 50.81811302 38.44427185 50.81811302 38.41992188 48.97436523 C38.40729309 47.38482277 38.40729309 47.38482277 38.39440918 45.76316833 C37.945459 42.61789438 37.21347498 41.25057903 35 39 C31.52620879 37.8420696 28.79529683 37.85877509 25.12939453 37.83886719 C24.08739899 37.83141983 24.08739899 37.83141983 23.02435303 37.82382202 C20.72716276 37.80922171 18.43004154 37.80240216 16.1328125 37.796875 C14.53482054 37.79112201 12.9368286 37.78536429 11.33883667 37.77960205 C7.98809488 37.76909828 4.63737703 37.76325146 1.28662109 37.75976562 C-3.00301716 37.75428067 -7.29233804 37.7302502 -11.58187675 37.70179367 C-14.88303549 37.68315355 -18.18411795 37.67796098 -21.48532486 37.67642975 C-23.06654725 37.67340603 -24.64776839 37.66538696 -26.22893906 37.65224457 C-28.44307238 37.63515403 -30.65643261 37.63707116 -32.87060547 37.64355469 C-34.12952606 37.63990906 -35.38844666 37.63626343 -36.68551636 37.63250732 C-40.2659221 38.02948406 -42.14765016 38.84047589 -45 41 Z M-62 60 C-62.02886338 64.47915328 -62.04675187 68.95828291 -62.0625 73.4375 C-62.07087891 74.71689453 -62.07925781 75.99628906 -62.08789062 77.31445312 C-62.09111328 78.52939453 -62.09433594 79.74433594 -62.09765625 80.99609375 C-62.10289307 82.12200928 -62.10812988 83.2479248 -62.11352539 84.40795898 C-62.29545448 86.92970871 -62.29545448 86.92970871 -61 88 C-58.03 88 -55.06 88 -52 88 C-52 78.43 -52 68.86 -52 59 C-59.18010841 58.40371521 -59.18010841 58.40371521 -62 60 Z M44 59 C44 68.57 44 78.14 44 88 C46.97 88 49.94 88 53 88 C54.29545448 86.92970871 54.29545448 86.92970871 54.11352539 84.40795898 C54.10828857 83.28204346 54.10305176 82.15612793 54.09765625 80.99609375 C54.09282227 79.17368164 54.09282227 79.17368164 54.08789062 77.31445312 C54.07532227 75.39536133 54.07532227 75.39536133 54.0625 73.4375 C54.05798828 72.15423828 54.05347656 70.87097656 54.04882812 69.54882812 C54.03699545 66.36583978 54.02051068 63.18294238 54 60 C51.18010841 58.40371521 51.18010841 58.40371521 44 59 Z " fill="#0065FF" transform="translate(68,5)"/>
<path d="M0 0 C2.875 1.4375 2.875 1.4375 5 4 C5.90705593 8.29865635 5.72920717 11.75427109 3.5 15.5625 C-0.0502437 17.60389013 -3.00285328 17.77813307 -7 17 C-9.5 15.5625 -9.5 15.5625 -11 13 C-11.60303852 9.8699429 -11.65919094 7.12399182 -11 4 C-7.77123438 0.10648852 -4.96361941 -0.8272699 0 0 Z M-5 7 C-4.67 8.32 -4.34 9.64 -4 11 C-3.01 10.67 -2.02 10.34 -1 10 C-1 9.01 -1 8.02 -1 7 C-2.32 7 -3.64 7 -5 7 Z " fill="#0064FF" transform="translate(83,58)"/>
<path d="M0 0 C2.875 1.4375 2.875 1.4375 5 4 C5.90705593 8.29865635 5.72920717 11.75427109 3.5 15.5625 C-0.0502437 17.60389013 -3.00285328 17.77813307 -7 17 C-9.5 15.5625 -9.5 15.5625 -11 13 C-11.60303852 9.8699429 -11.65919094 7.12399182 -11 4 C-7.77123438 0.10648852 -4.96361941 -0.8272699 0 0 Z M-5 7 C-4.67 8.32 -4.34 9.64 -4 11 C-3.01 10.67 -2.02 10.34 -1 10 C-1 9.01 -1 8.02 -1 7 C-2.32 7 -3.64 7 -5 7 Z " fill="#0064FF" transform="translate(51,58)"/>
<path d="M0 0 C3.28571473 -0.15646261 5.74801584 -0.08764666 8.875 1 C15.10638881 2.99404442 19.90548581 2.11983102 26 0 C29.375 -0.125 29.375 -0.125 32 0 C32 1.65 32 3.3 32 5 C24.59940863 9.38553563 17.47847301 10.01351861 9 9 C5.77398962 7.99132829 2.90522946 6.72161746 0 5 C0 3.35 0 1.7 0 0 Z " fill="#0065FF" transform="translate(48,90)"/>
</svg>
